<svg width="175" height="130" viewBox="0 0 175 130" fill="none" xmlns="http://www.w3.org/2000/svg">
<g id="illustration">
<rect id="Rectangle" x="104.696" width="55.0625" height="65.1573" rx="4" fill="#E6E6E6"/>
<path id="Path" d="M106.68 70.9444L94.9312 83.4456C95.5135 79.8984 96.0957 75.1791 96.9356 68.8869C100.136 44.8429 82.1626 41.9312 82.1626 41.9312C82.1626 41.9312 73.9182 92.1964 84.1052 93.2278C84.8318 93.3007 85.4913 93.358 86.1148 93.3997L85.548 97.5355C101.676 100.661 111.199 72.7831 111.199 72.7831L106.68 70.9444Z" fill="#601BC6"/>
<path id="Path_2" opacity="0.46" d="M106.68 70.9444L94.9312 83.4456C95.5135 79.8984 96.0957 75.1791 96.9356 68.8869C100.136 44.8429 82.1626 41.9312 82.1626 41.9312C82.1626 41.9312 73.9182 92.1964 84.1052 93.2278C84.8318 93.3007 85.4913 93.358 86.1148 93.3997L85.548 97.5355C101.676 100.661 111.199 72.7831 111.199 72.7831L106.68 70.9444Z" fill="white"/>
<ellipse id="Oval" opacity="0.1" cx="83.1004" cy="116.933" rx="83.1004" ry="13.0669" fill="#379FDC"/>
<path id="Path_3" d="M82.1627 41.9363C80.8228 41.4695 79.4249 41.1943 78.0096 41.1185C73.5524 40.8269 61.3816 40.7487 47.2888 46.6764C29.4859 54.1667 53.5854 104.562 53.5854 104.562L83.8167 102.275C83.8167 102.275 104.943 50.1194 82.1627 41.9363Z" fill="#601BC6"/>
<path id="Rectangle_2" d="M140.927 56.8425C140.896 55.7386 141.766 54.8184 142.87 54.7871L172.408 53.9478C173.512 53.9164 174.432 54.7864 174.463 55.8908L174.942 73.0943C174.972 74.1982 174.102 75.1184 172.998 75.1498L143.46 75.989C142.356 76.0204 141.436 75.1504 141.405 74.0461L140.927 56.8425Z" fill="#F2F2F2"/>
<path id="Path_4" d="M140.863 54.8541L158.001 67.7147L174.402 53.9009L140.863 54.8541Z" fill="#C9C9C9"/>
<path id="Path_5" opacity="0.08" d="M52.4155 50.3433C52.4155 50.3433 63.9165 50.8641 63.3961 68.8919C62.8756 86.9197 70.9346 82.1953 70.9346 82.1953L84.0999 61.0057C84.0999 61.0057 88.2943 60.5109 88.8765 64.9749C89.2475 67.8554 84.239 80.1534 80.6321 88.5136C78.5788 93.3091 79.872 98.8981 83.8165 102.275L53.611 104.562L52.5804 102.275L52.4155 50.3433Z" fill="black"/>
<path id="Path_6" d="M59.6296 25.1225C59.6296 25.1225 62.1442 28.6384 62.9892 31.4772C63.1534 32.0333 63.0913 32.6326 62.8165 33.1422C62.5417 33.6517 62.0771 34.0293 61.5258 34.1911C60.1037 34.6025 58.0683 34.7119 56.4916 33.0191L53.4669 30.4146C53.4669 30.4146 51.6274 28.727 52.8125 25.9611C53.9976 23.1952 58.2075 22.9035 59.6296 25.1225Z" fill="#F3B3A2"/>
<path id="Path_7" d="M55.2553 30.2632L53.7197 44.3948L61.4849 44.6917L59.4857 34.2896L55.2553 30.2632Z" fill="#F3B3A2"/>
<path id="Path_8" d="M58.8102 25.8306C57.6984 26.5617 56.5071 27.1612 55.2599 27.6172C56.5376 28.2514 57.3268 29.5859 57.2747 31.0238C57.2406 32.4347 56.2238 33.6241 54.8477 33.8626L52.0807 29.0393C51.2271 27.662 51.1876 25.923 51.9776 24.5076C52.3163 23.9065 52.6915 23.3272 53.1009 22.773C54.1315 21.3979 56.6718 21.1114 57.3468 19.4394C57.4845 19.0977 57.7906 18.8551 58.1517 18.8016C58.5128 18.748 58.875 18.8916 59.1039 19.1789C60.1757 20.502 61.2732 22.9501 59.7944 24.9086C59.5188 25.2687 59.1863 25.5802 58.8102 25.8306Z" fill="#1D2324"/>
<path id="Path_9" d="M57.6046 30.6903C57.6046 30.6903 56.7286 29.2735 55.729 30.0288C54.7293 30.7841 55.9815 32.8416 57.5428 32.1592L57.6046 30.6903Z" fill="#F3B3A2"/>
<path id="Path_10" d="M61.1035 27.4194L62.9791 28.232C63.1955 28.3266 63.3491 28.5262 63.3867 28.7614C63.4243 28.9966 63.3405 29.235 63.1646 29.3936L61.9125 30.5135L61.1035 27.4194Z" fill="#F3B3A2"/>
<path id="Path_11" opacity="0.31" d="M59.3773 34.6285C58.3845 34.6403 57.41 34.3578 56.5742 33.8159C56.5742 33.8159 56.6927 36.4203 60.0678 38.207L59.3773 34.6285Z" fill="#CE8172"/>
<path id="Path_12" d="M53.5854 104.562C53.5854 104.562 37.9261 110.448 41.734 119.277C44.5732 125.903 58.97 120.241 68.3996 117.428C71.7715 116.43 75.2979 116.077 78.7979 116.386C85.2749 116.949 93.5091 118.959 96.2761 115.157C100.352 109.568 95.1322 104.672 83.8115 102.296L53.5854 104.562Z" fill="#1D2324"/>
<path id="Path_13" d="M56.2854 56.2138C54.2243 46.9681 41.667 45.9315 38.1013 54.698C36.7049 58.1254 35.8186 62.5373 36.0402 68.1576C36.9265 87.8731 40.7962 104.656 55.4764 101.999C70.1567 99.3429 84.1207 68.142 84.1207 68.142L77.4221 64.3239L56.7801 84.6384C56.7801 84.6384 59.0525 68.4545 56.2854 56.2138Z" fill="#601BC6"/>
<path id="Path_14" opacity="0.46" d="M56.2854 56.2138C54.2243 46.9681 41.667 45.9315 38.1013 54.698C36.7049 58.1254 35.8186 62.5373 36.0402 68.1576C36.9265 87.8731 40.7962 104.656 55.4764 101.999C70.1567 99.3429 84.1207 68.142 84.1207 68.142L77.4221 64.3239L56.7801 84.6384C56.7801 84.6384 59.0525 68.4545 56.2854 56.2138Z" fill="white"/>
<path id="Path_15" d="M78.2466 64.7927C78.2466 64.7927 81.7556 58.3963 85.4605 59.7297C89.1653 61.0632 84.0589 62.8134 84.0589 62.8134C84.0589 62.8134 86.6662 65.1157 83.219 67.6315L78.2466 64.7927Z" fill="#F3B3A2"/>
<path id="Path_16" d="M72.3828 111.854L73.3618 116.423C73.3618 116.423 77.9993 119.866 80.9209 117.709C83.8426 115.553 79.37 113.063 72.3828 111.854Z" fill="#6517DA"/>
<path id="Rectangle_3" d="M102.412 55.4528C102.562 54.3575 103.572 53.5932 104.667 53.7466L109.934 54.4844C111.026 54.6375 111.79 55.6471 111.64 56.7404L109.907 69.3808C109.757 70.4761 108.747 71.2404 107.652 71.087L102.385 70.3492C101.293 70.1961 100.529 69.1866 100.679 68.0932L102.412 55.4528Z" fill="#6517DA"/>
<path id="Path_17" d="M111.198 72.7884C111.198 72.7884 113.259 64.9751 108.287 64.9751C103.315 64.9751 105.231 73.2415 111.198 72.7884Z" fill="#F3B3A2"/>
<path id="Path_18" d="M51.9055 44.921C51.9055 44.921 51.8334 41.5717 54.1985 40.0038C55.9814 38.8266 60.1242 40.8216 62.0513 41.8738C62.9927 42.3632 63.4867 43.4348 63.2519 44.4782C63.0209 45.2961 62.3213 45.8899 61.4845 45.9784C58.6969 46.5826 51.9055 44.921 51.9055 44.921Z" fill="#601BC6"/>
<path id="Path_19" opacity="0.46" d="M51.9055 44.921C51.9055 44.921 51.8334 41.5717 54.1985 40.0038C55.9814 38.8266 60.1242 40.8216 62.0513 41.8738C62.9927 42.3632 63.4867 43.4348 63.2519 44.4782C63.0209 45.2961 62.3213 45.8899 61.4845 45.9784C58.6969 46.5826 51.9055 44.921 51.9055 44.921Z" fill="white"/>
<path id="Path_20" d="M136.164 10.0112C136.164 8.90666 135.268 8.01123 134.164 8.01123H100.203C99.0986 8.01123 98.2031 8.90666 98.2031 10.0112V20.6637C98.2031 21.7683 99.0986 22.6637 100.203 22.6637H136.164H143.506L136.164 18.8091V10.0112Z" fill="#FF57A8"/>
<path id="Path_21" d="M128.198 36.3418C128.198 35.2372 129.093 34.3418 130.198 34.3418H164.158C165.263 34.3418 166.158 35.2372 166.158 36.3418V46.9943C166.158 48.0988 165.263 48.9943 164.158 48.9943H128.198H120.855L128.198 45.1397V36.3418Z" fill="#36235E"/>
<ellipse id="Oval_2" cx="150.123" cy="22.7419" rx="3.5451" ry="3.58368" fill="#F2F2F2"/>
<ellipse id="Oval_3" cx="113.487" cy="48.6559" rx="3.5451" ry="3.58368" fill="#F2F2F2"/>
<rect id="Rectangle_4" x="105.247" y="11.2251" width="23.5739" height="2.73464" fill="white"/>
<rect id="Rectangle_5" opacity="0.37" x="105.247" y="16.4341" width="23.5739" height="2.73464" fill="white"/>
<rect id="Rectangle_6" x="135.159" y="37.6963" width="23.5739" height="2.73464" fill="white"/>
<rect id="Rectangle_7" opacity="0.37" x="135.159" y="42.9053" width="23.5739" height="2.73464" fill="white"/>
<path id="Path_22" opacity="0.58" d="M123.74 105.745C123.74 105.745 116.913 103.89 115.403 97.4835C115.403 97.4835 125.961 95.2801 126.306 106.302L123.74 105.745Z" fill="#601BC6"/>
<path id="Path_23" opacity="0.73" d="M124.575 105.057C124.575 105.057 119.778 97.4675 123.941 90.3262C123.941 90.3262 131.995 95.4517 128.466 105.057H124.575Z" fill="#601BC6"/>
<path id="Path_24" d="M125.802 105.057C125.802 105.057 128.285 97.0096 135.886 95.4521C135.886 95.4521 137.339 100.661 131.001 105.057H125.802Z" fill="#601BC6"/>
<path id="Path_25" d="M120.855 104.901L122.277 114.454H130.985L132.227 104.901H120.855Z" fill="#70242A"/>
<rect id="Rectangle_8" x="145.701" y="15.3398" width="8.88853" height="1.80747" fill="#ADADAD"/>
<rect id="Rectangle_9" opacity="0.55" x="109.045" y="41.0298" width="8.88853" height="1.80747" fill="#ADADAD"/>
</g>
</svg>
