<svg width="20" height="20" viewBox="0 0 20 20" fill="none" xmlns="http://www.w3.org/2000/svg">
<path d="M2.91699 15.6248C2.57533 15.6248 2.29199 15.3415 2.29199 14.9998V5.83317C2.29199 2.15817 3.40866 1.0415 7.08366 1.0415H12.917C16.592 1.0415 17.7087 2.15817 17.7087 5.83317V14.1665C17.7087 14.2998 17.7087 14.4248 17.7003 14.5582C17.6753 14.8998 17.367 15.1665 17.0337 15.1415C16.692 15.1165 16.4253 14.8165 16.4503 14.4748C16.4587 14.3748 16.4587 14.2665 16.4587 14.1665V5.83317C16.4587 2.85817 15.9003 2.2915 12.917 2.2915H7.08366C4.10033 2.2915 3.54199 2.85817 3.54199 5.83317V14.9998C3.54199 15.3415 3.25866 15.6248 2.91699 15.6248Z" fill="#EC7323"/>
<path d="M14.167 18.9583H5.83366C3.88366 18.9583 2.29199 17.3667 2.29199 15.4167V14.875C2.29199 13.2167 3.64199 11.875 5.29199 11.875H17.0837C17.4253 11.875 17.7087 12.1583 17.7087 12.5V15.4167C17.7087 17.3667 16.117 18.9583 14.167 18.9583ZM5.29199 13.125C4.32533 13.125 3.54199 13.9083 3.54199 14.875V15.4167C3.54199 16.6833 4.56699 17.7083 5.83366 17.7083H14.167C15.4337 17.7083 16.4587 16.6833 16.4587 15.4167V13.125H5.29199Z" fill="#EC7323"/>
<path d="M13.3337 6.4585H6.66699C6.32533 6.4585 6.04199 6.17516 6.04199 5.8335C6.04199 5.49183 6.32533 5.2085 6.66699 5.2085H13.3337C13.6753 5.2085 13.9587 5.49183 13.9587 5.8335C13.9587 6.17516 13.6753 6.4585 13.3337 6.4585Z" fill="#EC7323"/>
<path d="M10.8337 9.375H6.66699C6.32533 9.375 6.04199 9.09167 6.04199 8.75C6.04199 8.40833 6.32533 8.125 6.66699 8.125H10.8337C11.1753 8.125 11.4587 8.40833 11.4587 8.75C11.4587 9.09167 11.1753 9.375 10.8337 9.375Z" fill="#EC7323"/>
</svg>
