<svg width="20" height="20" viewBox="0 0 20 20" fill="none" xmlns="http://www.w3.org/2000/svg">
<path d="M13.3356 18.9611H2.50228C1.70228 18.9611 1.04395 18.3028 1.04395 17.5028V6.66943C1.04395 2.9861 2.98561 1.04443 6.66895 1.04443H13.3356C17.0189 1.04443 18.9606 2.9861 18.9606 6.66943V13.3361C18.9606 17.0194 17.0189 18.9611 13.3356 18.9611ZM6.66895 2.29443C3.68561 2.29443 2.29395 3.6861 2.29395 6.66943V17.5028C2.29395 17.6194 2.38561 17.7111 2.50228 17.7111H13.3356C16.3189 17.7111 17.7106 16.3194 17.7106 13.3361V6.66943C17.7106 3.6861 16.3189 2.29443 13.3356 2.29443H6.66895Z" fill="#EC7323"/>
<path d="M6.62577 14.7855C6.2341 14.7855 5.87576 14.6438 5.6091 14.3855C5.29243 14.0688 5.15075 13.6188 5.22575 13.1355L5.45908 11.4855C5.50908 11.1272 5.73409 10.6688 5.99242 10.4105L10.3174 6.08549C11.8008 4.60215 13.0924 5.26882 13.9091 6.08549C14.5508 6.72715 14.8424 7.40215 14.7758 8.07715C14.7258 8.62715 14.4341 9.14382 13.9091 9.67715L9.58409 14.0022C9.32575 14.2605 8.87575 14.4855 8.50908 14.5438L6.8591 14.7772C6.7841 14.7772 6.70077 14.7855 6.62577 14.7855ZM12.1091 6.45215C11.8008 6.45215 11.5258 6.65215 11.2091 6.96048L6.8841 11.2855C6.81743 11.3522 6.71743 11.5605 6.70076 11.6522L6.46743 13.3022C6.4591 13.3855 6.46741 13.4605 6.50074 13.4938C6.53408 13.5272 6.60909 13.5355 6.69242 13.5272L8.34243 13.2938C8.44243 13.2772 8.64243 13.1772 8.7091 13.1105L13.0341 8.78548C13.3508 8.46882 13.5174 8.19382 13.5424 7.94382C13.5674 7.66049 13.4008 7.32715 13.0341 6.96048C12.6674 6.61048 12.3758 6.45215 12.1091 6.45215Z" fill="#EC7323"/>
<path d="M12.8547 10.486C12.7963 10.486 12.738 10.4777 12.688 10.461C11.1796 10.036 9.97132 8.83603 9.54632 7.31937C9.45465 6.98603 9.64631 6.64437 9.97964 6.54437C10.313 6.4527 10.6547 6.64437 10.7463 6.9777C11.0547 8.06937 11.9296 8.94437 13.0213 9.2527C13.3546 9.34437 13.5463 9.69437 13.4547 10.0277C13.3797 10.3027 13.1297 10.486 12.8547 10.486Z" fill="#EC7323"/>
</svg>
