<svg width="48" height="48" viewBox="0 0 48 48" fill="none" xmlns="http://www.w3.org/2000/svg">
<circle cx="24" cy="24" r="22.5" stroke="white" stroke-width="3"/>
<path fill-rule="evenodd" clip-rule="evenodd" d="M25.4142 24L29.7072 19.707C30.0982 19.316 30.0982 18.684 29.7072 18.293C29.3162 17.902 28.6842 17.902 28.2933 18.293L24.0002 22.586L19.7072 18.293C19.3162 17.902 18.6842 17.902 18.2932 18.293C17.9022 18.684 17.9022 19.316 18.2932 19.707L22.5862 24L18.2932 28.293C17.9022 28.684 17.9022 29.316 18.2932 29.707C18.4882 29.902 18.7442 30 19.0002 30C19.2563 30 19.5122 29.902 19.7072 29.707L24.0002 25.414L28.2933 29.707C28.4882 29.902 28.7443 30 29.0002 30C29.2562 30 29.5122 29.902 29.7072 29.707C30.0982 29.316 30.0982 28.684 29.7072 28.293L25.4142 24Z" fill="white"/>
<mask id="mask0_218_10307" style="mask-type:luminance" maskUnits="userSpaceOnUse" x="18" y="17" width="13" height="13">
<path fill-rule="evenodd" clip-rule="evenodd" d="M25.4142 24L29.7072 19.707C30.0982 19.316 30.0982 18.684 29.7072 18.293C29.3162 17.902 28.6842 17.902 28.2933 18.293L24.0002 22.586L19.7072 18.293C19.3162 17.902 18.6842 17.902 18.2932 18.293C17.9022 18.684 17.9022 19.316 18.2932 19.707L22.5862 24L18.2932 28.293C17.9022 28.684 17.9022 29.316 18.2932 29.707C18.4882 29.902 18.7442 30 19.0002 30C19.2563 30 19.5122 29.902 19.7072 29.707L24.0002 25.414L28.2933 29.707C28.4882 29.902 28.7443 30 29.0002 30C29.2562 30 29.5122 29.902 29.7072 29.707C30.0982 29.316 30.0982 28.684 29.7072 28.293L25.4142 24Z" fill="white"/>
</mask>
<g mask="url(#mask0_218_10307)">
<rect x="12" y="12" width="24" height="24" fill="white"/>
</g>
</svg>
