<svg width="24" height="24" viewBox="0 0 24 24" fill="none" xmlns="http://www.w3.org/2000/svg">
<path fill-rule="evenodd" clip-rule="evenodd" d="M19.7812 10.3753L15.7812 5.37533C15.4342 4.94433 14.8062 4.87333 14.3752 5.21933C13.9442 5.56333 13.8742 6.19333 14.2192 6.62433L16.9202 10.0003H8.00024C6.34524 10.0003 5.00024 11.3453 5.00024 13.0003V18.0003C5.00024 18.5523 5.44824 19.0003 6.00024 19.0003C6.55224 19.0003 7.00024 18.5523 7.00024 18.0003V13.0003C7.00024 12.4483 7.44824 12.0003 8.00024 12.0003H16.9202L14.2192 15.3753C13.8742 15.8063 13.9442 16.4363 14.3752 16.7803C14.5592 16.9283 14.7802 17.0003 14.9992 17.0003C15.2932 17.0003 15.5832 16.8713 15.7812 16.6243L19.7812 11.6243C20.0732 11.2593 20.0732 10.7403 19.7812 10.3753Z" fill="white"/>
<mask id="mask0_549_20148" style="mask-type:luminance" maskUnits="userSpaceOnUse" x="5" y="4" width="16" height="16">
<path fill-rule="evenodd" clip-rule="evenodd" d="M19.7812 10.3753L15.7812 5.37533C15.4342 4.94433 14.8062 4.87333 14.3752 5.21933C13.9442 5.56333 13.8742 6.19333 14.2192 6.62433L16.9202 10.0003H8.00024C6.34524 10.0003 5.00024 11.3453 5.00024 13.0003V18.0003C5.00024 18.5523 5.44824 19.0003 6.00024 19.0003C6.55224 19.0003 7.00024 18.5523 7.00024 18.0003V13.0003C7.00024 12.4483 7.44824 12.0003 8.00024 12.0003H16.9202L14.2192 15.3753C13.8742 15.8063 13.9442 16.4363 14.3752 16.7803C14.5592 16.9283 14.7802 17.0003 14.9992 17.0003C15.2932 17.0003 15.5832 16.8713 15.7812 16.6243L19.7812 11.6243C20.0732 11.2593 20.0732 10.7403 19.7812 10.3753Z" fill="white"/>
</mask>
<g mask="url(#mask0_549_20148)">
<rect y="-0.000244141" width="24" height="24" fill="white"/>
</g>
</svg>
