<svg width="20" height="20" viewBox="0 0 20 20" fill="none" xmlns="http://www.w3.org/2000/svg">
<path d="M11.9333 15.8915C11.9333 16.3998 11.5999 17.0665 11.1749 17.3248L9.99997 18.0831C8.9083 18.7581 7.39163 17.9998 7.39163 16.6498V12.1915C7.39163 11.5998 7.0583 10.8415 6.71663 10.4248L3.51661 7.05813C3.09161 6.63313 2.7583 5.88314 2.7583 5.37481V3.44147C2.7583 2.43313 3.51665 1.6748 4.44165 1.6748H15.5583C16.4833 1.6748 17.2416 2.43313 17.2416 3.35813V5.20813C17.2416 5.88313 16.8166 6.7248 16.4 7.14147" stroke="#7C26E7" stroke-width="1.5" stroke-miterlimit="10" stroke-linecap="round" stroke-linejoin="round"/>
<path d="M13.3918 13.7664C14.8645 13.7664 16.0585 12.5725 16.0585 11.0998C16.0585 9.62702 14.8645 8.43311 13.3918 8.43311C11.919 8.43311 10.7251 9.62702 10.7251 11.0998C10.7251 12.5725 11.919 13.7664 13.3918 13.7664Z" stroke="#7C26E7" stroke-width="1.5" stroke-linecap="round" stroke-linejoin="round"/>
<path d="M16.5584 14.2664L15.7251 13.4331" stroke="#7C26E7" stroke-width="1.5" stroke-linecap="round" stroke-linejoin="round"/>
</svg>
