<svg width="20" height="20" viewBox="0 0 20 20" fill="none" xmlns="http://www.w3.org/2000/svg">
<path d="M10 4.67492L7.70004 6.95825L10.4584 9.71659L9.57504 10.5999L6.81671 7.84159L5.34171 9.31659L8.10004 12.0749L7.21671 12.9583L4.45837 10.1999L2.79171 11.8666C2.52687 12.1231 2.35457 12.4602 2.30179 12.8252C2.24902 13.1901 2.31874 13.5622 2.50004 13.8833L3.33337 15.4583L1.45837 17.3666L2.63337 18.5416L4.54171 16.6666L6.11671 17.4999C6.37071 17.6439 6.65808 17.7186 6.95004 17.7166C7.16997 17.7168 7.38775 17.6734 7.59085 17.589C7.79394 17.5046 7.97833 17.3809 8.13337 17.2249L15.325 9.99992L10 4.67492ZM16.5 7.66659L15.0084 6.16659L16.1917 4.99159L17.3667 6.16659L18.5417 4.99159L15.0084 1.45825L13.8334 2.63325L15.0084 3.81659L13.8334 4.99159L12.3334 3.49992L10.8834 2.04159L9.70837 3.22492L10.5667 4.08325V4.09159L15.9084 9.43325H15.9167L16.775 10.2916L17.9584 9.11659L16.5084 7.66659H16.5Z" fill="#B4C2D4"/>
</svg>
