<svg width="20" height="20" viewBox="0 0 20 20" fill="none" xmlns="http://www.w3.org/2000/svg">
<path d="M16.5498 6.74158C16.5498 7.09158 16.5248 7.43324 16.4832 7.75824C16.0998 7.59158 15.6832 7.49991 15.2415 7.49991C14.2248 7.49991 13.3248 7.99157 12.7665 8.74157C12.1998 7.99157 11.2998 7.49991 10.2832 7.49991C8.57483 7.49991 7.19151 8.89157 7.19151 10.6166C7.19151 12.8499 8.37484 14.5582 9.69151 15.7166C9.64984 15.7416 9.60818 15.7499 9.56651 15.7666C9.31651 15.8583 8.89984 15.8583 8.64984 15.7666C6.49151 15.0249 1.6665 11.9582 1.6665 6.74158C1.6665 4.44158 3.5165 2.58325 5.79983 2.58325C7.15816 2.58325 8.35816 3.23324 9.10816 4.24158C9.8665 3.23324 11.0665 2.58325 12.4165 2.58325C14.6998 2.58325 16.5498 4.44158 16.5498 6.74158Z" stroke="#7C26E7" stroke-width="1.5" stroke-linecap="round" stroke-linejoin="round"/>
<path d="M18.3331 10.6167C18.3331 14.5167 14.7247 16.8167 13.1081 17.3667C12.9164 17.4333 12.6081 17.4333 12.4164 17.3667C11.7247 17.1333 10.6664 16.575 9.69141 15.7167C8.37474 14.5583 7.19141 12.85 7.19141 10.6167C7.19141 8.89166 8.57473 7.5 10.2831 7.5C11.2997 7.5 12.1997 7.99166 12.7664 8.74166C13.3247 7.99166 14.2247 7.5 15.2414 7.5C15.6831 7.5 16.0997 7.59166 16.4831 7.75833C17.5747 8.24166 18.3331 9.33333 18.3331 10.6167Z" stroke="#7C26E7" stroke-width="1.5" stroke-linecap="round" stroke-linejoin="round"/>
</svg>
