<svg width="20" height="20" viewBox="0 0 20 20" fill="none" xmlns="http://www.w3.org/2000/svg">
<path d="M12.5253 8.97509L17.242 5.81677C17.717 5.5001 17.842 4.8501 17.5253 4.38344L16.0086 2.12508C15.692 1.65008 15.042 1.52509 14.5753 1.84175L9.85864 5.00009L12.5253 8.97509Z" stroke="#EC7323" stroke-width="1.5" stroke-linecap="round" stroke-linejoin="round"/>
<path d="M10.1452 5.39948L6.16382 8.06604L8.29707 11.2512L12.2785 8.5846L10.1452 5.39948Z" stroke="#EC7323" stroke-width="1.5" stroke-linecap="round" stroke-linejoin="round"/>
<path d="M4.85861 13.2501L8.15028 11.0501L6.28361 8.26678L2.99194 10.4668C2.60861 10.7251 2.50861 11.2418 2.76694 11.6251L3.70861 13.0251C3.95861 13.4001 4.47528 13.5001 4.85861 13.2501Z" stroke="#EC7323" stroke-width="1.5" stroke-linecap="round" stroke-linejoin="round"/>
<path d="M10.042 10.1668L6.30029 18.3335" stroke="#EC7323" stroke-width="1.5" stroke-linecap="round" stroke-linejoin="round"/>
<path d="M10.0002 10.1668L13.7002 18.3335" stroke="#EC7323" stroke-width="1.5" stroke-linecap="round" stroke-linejoin="round"/>
</svg>
