<svg width="24" height="24" viewBox="0 0 24 24" fill="none" xmlns="http://www.w3.org/2000/svg">
<path d="M6.44 2H17.55C21.11 2 22 2.89 22 6.44V12.77C22 16.33 21.11 17.21 17.56 17.21H6.44C2.89 17.22 2 16.33 2 12.78V6.44C2 2.89 2.89 2 6.44 2Z" stroke="#EC7323" stroke-width="2" stroke-linecap="round" stroke-linejoin="round"/>
<path d="M12 17.2188V21.9988" stroke="#EC7323" stroke-width="2" stroke-linecap="round" stroke-linejoin="round"/>
<path d="M2 13H22" stroke="#EC7323" stroke-width="2" stroke-linecap="round" stroke-linejoin="round"/>
<path d="M12 9.75C13.2426 9.75 14.25 8.74264 14.25 7.5C14.25 6.25736 13.2426 5.25 12 5.25C10.7574 5.25 9.75 6.25736 9.75 7.5C9.75 8.74264 10.7574 9.75 12 9.75Z" stroke="#EC7323" stroke-width="2" stroke-linecap="round" stroke-linejoin="round"/>
<path d="M7.5 22H16.5" stroke="#EC7323" stroke-width="2" stroke-linecap="round" stroke-linejoin="round"/>
</svg>
