<svg width="20" height="20" viewBox="0 0 20 20" fill="none" xmlns="http://www.w3.org/2000/svg">
<path d="M10.0002 7.76675C10.9919 7.76675 11.8002 6.95841 11.8002 5.96675C11.8002 4.97508 10.9919 4.16675 10.0002 4.16675C9.00853 4.16675 8.2002 4.97508 8.2002 5.96675C8.2002 6.95841 9.00853 7.76675 10.0002 7.76675Z" stroke="#7C26E7" stroke-width="1.5" stroke-linecap="round" stroke-linejoin="round"/>
<path d="M5.6584 15.8334C6.65006 15.8334 7.4584 15.0251 7.4584 14.0334C7.4584 13.0417 6.65006 12.2334 5.6584 12.2334C4.66673 12.2334 3.8584 13.0417 3.8584 14.0334C3.8584 15.0251 4.6584 15.8334 5.6584 15.8334Z" stroke="#7C26E7" stroke-width="1.5" stroke-linecap="round" stroke-linejoin="round"/>
<path d="M14.3415 15.8334C15.3332 15.8334 16.1415 15.0251 16.1415 14.0334C16.1415 13.0417 15.3332 12.2334 14.3415 12.2334C13.3498 12.2334 12.5415 13.0417 12.5415 14.0334C12.5415 15.0251 13.3498 15.8334 14.3415 15.8334Z" stroke="#7C26E7" stroke-width="1.5" stroke-linecap="round" stroke-linejoin="round"/>
</svg>
