<svg width="15" height="19" viewBox="0 0 15 19" fill="none" xmlns="http://www.w3.org/2000/svg">
<path d="M6.99988 0.601562C6.18762 0.601562 5.27332 0.827344 4.51629 1.28086L4.51707 1.27707C4.50848 1.28316 4.49965 1.28984 4.49102 1.29598C4.25168 1.44168 4.02859 1.61023 3.82996 1.80203C2.90379 2.55879 1.95867 3.54852 1.47176 4.65156C1.79871 4.48926 2.11102 4.28281 2.42527 4.08219C2.13953 4.57066 1.9548 5.09484 1.96715 5.65047C2.19871 5.42586 2.5234 5.06805 2.89121 4.73738C2.95996 5.23633 3.11551 5.78965 3.3791 6.40457L3.44832 6.56621L2.89617 7.5241L3.87488 8.50285L4.55449 7.82316L5.53 9.28645L5.82336 7.19559L9.43828 9.18953L11.7761 6.85172C12.0489 5.74391 11.8741 4.66789 11.4302 3.71656C10.5863 1.90809 8.70121 0.601562 6.99988 0.601562ZM13.9739 1.48117L11.343 2.23273C11.6248 2.59863 11.87 2.99641 12.0673 3.41926C12.2617 3.8359 12.4073 4.27855 12.4949 4.73812L14.7805 3.05141L12.5311 3.15328L13.9739 1.48117ZM8.52801 2.69238L9.22176 2.80762C9.22176 2.80762 9.17293 3.10691 9.06059 3.43398C9.00441 3.5975 8.93312 3.77094 8.83023 3.93187C8.72738 4.09281 8.58945 4.25742 8.36109 4.33355C8.13266 4.40965 7.92359 4.36066 7.74469 4.29363C7.5659 4.2266 7.40469 4.13066 7.26164 4.03348C6.97559 3.83926 6.75695 3.6291 6.75695 3.6291L7.24289 3.12082C7.24289 3.12082 7.42824 3.2968 7.65664 3.45188C7.77086 3.52938 7.89461 3.59891 7.9916 3.63523C8.08855 3.67156 8.14621 3.66391 8.13875 3.66637C8.13133 3.66887 8.18203 3.64043 8.23777 3.5532C8.29352 3.46594 8.35078 3.33602 8.39559 3.20555C8.48527 2.94441 8.52801 2.69238 8.52801 2.69238ZM11.9999 7.62215L9.56152 10.0604L6.37777 8.30441L5.96977 11.2136L4.44523 8.92688L3.87484 9.49719L2.55543 8.17777L0.506836 9.20215C0.817695 11.5912 1.28809 13.7993 2.22434 15.3837C3.19293 17.0227 4.60242 18.0234 6.99988 18.0234C9.39734 18.0234 10.8068 17.0227 11.7754 15.3837C12.7217 13.7822 13.1924 11.5441 13.5032 9.12547L11.9999 7.62211V7.62215Z" fill="#27AE60"/>
</svg>
