<svg width="20" height="20" viewBox="0 0 20 20" fill="none" xmlns="http://www.w3.org/2000/svg">
<path d="M9.29165 2.83329L6.19165 7.89995C5.84998 8.44995 6.24998 9.16662 6.89998 9.16662H13.0916C13.7416 9.16662 14.1416 8.44995 13.8 7.89995L10.7083 2.83329C10.6346 2.71132 10.5307 2.61043 10.4066 2.54041C10.2825 2.47039 10.1425 2.43359 9.99998 2.43359C9.85749 2.43359 9.71741 2.47039 9.59332 2.54041C9.46922 2.61043 9.36531 2.71132 9.29165 2.83329Z" fill="#B4C2D4"/>
<path d="M14.5834 18.3333C16.6544 18.3333 18.3334 16.6543 18.3334 14.5833C18.3334 12.5122 16.6544 10.8333 14.5834 10.8333C12.5123 10.8333 10.8334 12.5122 10.8334 14.5833C10.8334 16.6543 12.5123 18.3333 14.5834 18.3333Z" fill="#B4C2D4"/>
<path d="M3.33333 17.9167H8.33333C8.79167 17.9167 9.16667 17.5417 9.16667 17.0833V12.0833C9.16667 11.625 8.79167 11.25 8.33333 11.25H3.33333C2.875 11.25 2.5 11.625 2.5 12.0833V17.0833C2.5 17.5417 2.875 17.9167 3.33333 17.9167Z" fill="#B4C2D4"/>
</svg>
