<svg width="16" height="16" viewBox="0 0 16 16" fill="none" xmlns="http://www.w3.org/2000/svg">
<path d="M4.00016 2.66683C5.1135 1.8335 6.50016 1.3335 8.00016 1.3335C11.6802 1.3335 14.6668 4.32016 14.6668 8.00016C14.6668 11.6802 11.6802 14.6668 8.00016 14.6668C4.32016 14.6668 1.3335 11.6802 1.3335 8.00016C1.3335 6.7935 1.65349 5.66016 2.22015 4.68016L8.00016 8.00016" stroke="#7C26E7" stroke-width="1.2" stroke-miterlimit="10" stroke-linecap="round" stroke-linejoin="round"/>
<path d="M4.55332 5.97333C4.19999 6.56666 4 7.26 4 8C4 10.2067 5.79333 12 8 12C10.2067 12 12 10.2067 12 8C12 5.79333 10.2067 4 8 4C7.39333 4 6.81334 4.13334 6.30001 4.38" stroke="#7C26E7" stroke-width="1.2" stroke-miterlimit="10" stroke-linecap="round" stroke-linejoin="round"/>
</svg>
