<svg width="17" height="17" viewBox="0 0 17 17" fill="none" xmlns="http://www.w3.org/2000/svg">
<path d="M10.6953 0.924618C10.4093 0.631931 10.0677 0.399362 9.69058 0.240579C9.31343 0.0817951 8.90835 0 8.49914 0C8.08994 0 7.68486 0.0817951 7.30771 0.240579C6.93056 0.399362 6.58895 0.631931 6.30296 0.924618L5.64208 1.60252L4.69646 1.59083C4.28713 1.58599 3.88096 1.66304 3.50185 1.81746C3.12273 1.97188 2.77832 2.20055 2.48886 2.49002C2.1994 2.77948 1.97074 3.12391 1.81633 3.50304C1.66191 3.88217 1.58486 4.28836 1.58971 4.6977L1.60033 5.64336L0.924582 6.30426C0.631907 6.59026 0.399347 6.93189 0.240569 7.30905C0.081792 7.68621 0 8.09131 0 8.50053C0 8.90975 0.081792 9.31485 0.240569 9.69201C0.399347 10.0692 0.631907 10.4108 0.924582 10.6968L1.6014 11.3577L1.58971 12.3034C1.58486 12.7127 1.66191 13.1189 1.81633 13.498C1.97074 13.8771 2.1994 14.2216 2.48886 14.511C2.77832 14.8005 3.12273 15.0292 3.50185 15.1836C3.88096 15.338 4.28713 15.4151 4.69646 15.4102L5.64208 15.3996L6.30296 16.0754C6.58895 16.3681 6.93056 16.6006 7.30771 16.7594C7.68486 16.9182 8.08994 17 8.49914 17C8.90835 17 9.31343 16.9182 9.69058 16.7594C10.0677 16.6006 10.4093 16.3681 10.6953 16.0754L11.3562 15.3985L12.3018 15.4102C12.7112 15.4151 13.1173 15.338 13.4964 15.1836C13.8756 15.0292 14.22 14.8005 14.5094 14.511C14.7989 14.2216 15.0276 13.8771 15.182 13.498C15.3364 13.1189 15.4134 12.7127 15.4086 12.3034L15.398 11.3577L16.0737 10.6968C16.3664 10.4108 16.5989 10.0692 16.7577 9.69201C16.9165 9.31485 16.9983 8.90975 16.9983 8.50053C16.9983 8.09131 16.9165 7.68621 16.7577 7.30905C16.5989 6.93189 16.3664 6.59026 16.0737 6.30426L15.3969 5.64336L15.4086 4.6977C15.4134 4.28836 15.3364 3.88217 15.182 3.50304C15.0276 3.12391 14.7989 2.77948 14.5094 2.49002C14.22 2.20055 13.8756 1.97188 13.4964 1.81746C13.1173 1.66304 12.7112 1.58599 12.3018 1.59083L11.3562 1.60146L10.6953 0.924618ZM11.0003 7.28286L7.81277 10.4705C7.76342 10.52 7.7048 10.5592 7.64026 10.586C7.57571 10.6128 7.50652 10.6266 7.43664 10.6266C7.36677 10.6266 7.29758 10.6128 7.23303 10.586C7.16849 10.5592 7.10987 10.52 7.06052 10.4705L5.46677 8.87667C5.41738 8.82728 5.3782 8.76863 5.35146 8.7041C5.32473 8.63956 5.31097 8.57039 5.31097 8.50053C5.31097 8.43068 5.32473 8.3615 5.35146 8.29697C5.3782 8.23243 5.41738 8.17379 5.46677 8.12439C5.51616 8.075 5.5748 8.03581 5.63934 8.00908C5.70387 7.98235 5.77304 7.96859 5.84289 7.96859C5.91275 7.96859 5.98192 7.98235 6.04645 8.00908C6.11099 8.03581 6.16963 8.075 6.21902 8.12439L7.43664 9.34313L10.248 6.53058C10.3478 6.43082 10.4831 6.37478 10.6241 6.37478C10.7652 6.37478 10.9005 6.43082 11.0003 6.53058C11.1 6.63034 11.1561 6.76564 11.1561 6.90672C11.1561 7.0478 11.1 7.1831 11.0003 7.28286Z" fill="#2D9CDB"/>
</svg>
