<svg width="14" height="14" viewBox="0 0 14 14" fill="none" xmlns="http://www.w3.org/2000/svg">
<path d="M12.4154 4.82753L8.94409 4.32304L7.39233 1.17714C7.34995 1.09101 7.28022 1.02128 7.19409 0.978899C6.97807 0.872258 6.71557 0.961126 6.60757 1.17714L5.05581 4.32304L1.58452 4.82753C1.48882 4.8412 1.40132 4.88632 1.33432 4.95468C1.25333 5.03792 1.20871 5.14992 1.21024 5.26605C1.21178 5.38218 1.25936 5.49295 1.34253 5.57402L3.85405 8.02265L3.26069 11.4803C3.24678 11.5607 3.25568 11.6434 3.28638 11.7191C3.31709 11.7947 3.36837 11.8602 3.43442 11.9082C3.50046 11.9561 3.57863 11.9846 3.66005 11.9904C3.74147 11.9962 3.82288 11.9791 3.89507 11.941L6.99995 10.3086L10.1048 11.941C10.1896 11.9861 10.288 12.0012 10.3824 11.9848C10.6203 11.9437 10.7802 11.7182 10.7392 11.4803L10.1458 8.02265L12.6574 5.57402C12.7257 5.50703 12.7708 5.41952 12.7845 5.32382C12.8214 5.08456 12.6546 4.86308 12.4154 4.82753Z" fill="#F49E1C"/>
</svg>
