<svg width="10" height="10" viewBox="0 0 10 10" fill="none" xmlns="http://www.w3.org/2000/svg">
<path d="M9.67679 3.73166L6.67898 3.32105L5.33889 0.760576C5.30228 0.690472 5.24207 0.633721 5.16768 0.599225C4.98113 0.51243 4.75444 0.584759 4.66116 0.760576L3.32106 3.32105L0.323258 3.73166C0.240609 3.74278 0.165044 3.77951 0.107189 3.83514C0.0372466 3.9029 -0.00129512 3.99405 3.3232e-05 4.08857C0.00136159 4.18309 0.0424513 4.27324 0.114274 4.33923L2.28323 6.33219L1.7708 9.14637C1.75878 9.21183 1.76647 9.27916 1.79299 9.34071C1.81951 9.40227 1.86379 9.45559 1.92083 9.49463C1.97787 9.53368 2.04537 9.55687 2.11568 9.5616C2.186 9.56633 2.25631 9.55239 2.31865 9.52137L5.00002 8.19273L7.6814 9.52137C7.7546 9.55809 7.83962 9.57033 7.92108 9.55698C8.12653 9.52359 8.26467 9.33999 8.22925 9.14637L7.71682 6.33219L9.88577 4.33923C9.94481 4.2847 9.98377 4.21348 9.99558 4.13559C10.0275 3.94086 9.88341 3.76059 9.67679 3.73166Z" fill="#EC7323" fill-opacity="0.5"/>
</svg>
