<svg width="12" height="12" viewBox="0 0 12 12" fill="none" xmlns="http://www.w3.org/2000/svg">
<path d="M10.6 6.47264L10.6 6.47174L9 5V4.9H8.99973C8.99969 4.9 8.99965 4.9 8.99961 4.9L7.75 4.9C7.65717 4.9 7.56815 4.93687 7.50251 5.00251C7.43687 5.06815 7.4 5.15718 7.4 5.25V5.75C7.4 5.84283 7.43687 5.93185 7.50251 5.99749C7.56815 6.06313 7.65717 6.1 7.75 6.1H9V6.10001L9.00164 6.09999C9.10487 6.09829 9.2046 6.13737 9.27919 6.20875C9.35352 6.27989 9.3969 6.37737 9.40001 6.48018C9.40698 7.90838 9.04519 9.04132 8.40308 9.68795C8.15152 9.92891 7.85365 10.1163 7.52752 10.2387C7.20101 10.3613 6.853 10.4162 6.50461 10.4001L6.50462 10.4H6.5H5C4.89391 10.4 4.79217 10.3579 4.71716 10.2828C4.64214 10.2078 4.6 10.1061 4.6 10V6.1H5.75C5.84283 6.1 5.93185 6.06313 5.99749 5.99749C6.06313 5.93185 6.1 5.84283 6.1 5.75V5.25C6.1 5.15718 6.06313 5.06815 5.99749 5.00251C5.93185 4.93687 5.84283 4.9 5.75 4.9H4.6V2C4.6 1.57565 4.43143 1.16869 4.13137 0.868629C3.83131 0.568571 3.42435 0.4 3 0.4H1.75C1.65717 0.4 1.56815 0.436875 1.50251 0.502513C1.43687 0.56815 1.4 0.657174 1.4 0.75V1.25C1.4 1.34283 1.43687 1.43185 1.50251 1.49749C1.56815 1.56313 1.65717 1.6 1.75 1.6H3C3.10609 1.6 3.20783 1.64214 3.28284 1.71716C3.35786 1.79217 3.4 1.89391 3.4 2V4.9H2.25C2.15717 4.9 2.06815 4.93688 2.00251 5.00251C1.93687 5.06815 1.9 5.15717 1.9 5.25V5.75C1.9 5.84283 1.93687 5.93185 2.00251 5.99749C2.06815 6.06313 2.15717 6.1 2.25 6.1H3.4V10C3.4 10.4243 3.56857 10.8313 3.86863 11.1314C4.16869 11.4314 4.57565 11.6 5 11.6H6.49813C7.00499 11.6191 7.51044 11.5347 7.98362 11.3519C8.4574 11.1689 8.88887 10.8912 9.25164 10.5358L9.25252 10.5349C10.1494 9.63398 10.6089 8.22416 10.6 6.47264Z" fill="#555F71" stroke="#555F71" stroke-width="0.2"/>
</svg>
