<svg width="12" height="14" viewBox="0 0 12 14" fill="none" xmlns="http://www.w3.org/2000/svg">
<path d="M11.25 7.55193C11.2603 9.57708 10.7287 11.1869 9.71192 12.2083C9.30004 12.6119 8.81013 12.9272 8.27219 13.135C7.73425 13.3427 7.15958 13.4386 6.58333 13.4166H4.83333C4.3692 13.4166 3.92409 13.2322 3.5959 12.904C3.26771 12.5758 3.08333 12.1307 3.08333 11.6666V6.99992H1.625C1.54765 6.99992 1.47346 6.96919 1.41876 6.91449C1.36406 6.85979 1.33333 6.78561 1.33333 6.70825V6.12492C1.33333 6.04756 1.36406 5.97338 1.41876 5.91868C1.47346 5.86398 1.54765 5.83325 1.625 5.83325H3.08333V2.33325C3.08333 2.17854 3.02187 2.03017 2.91248 1.92077C2.80308 1.81138 2.65471 1.74992 2.5 1.74992H1.04167C0.964312 1.74992 0.890125 1.71919 0.835427 1.66449C0.780729 1.60979 0.75 1.53561 0.75 1.45825V0.874919C0.75 0.797564 0.780729 0.723377 0.835427 0.668679C0.890125 0.613981 0.964312 0.583252 1.04167 0.583252H2.5C2.96413 0.583252 3.40925 0.767626 3.73744 1.09582C4.06563 1.424 4.25 1.86912 4.25 2.33325V5.83325H5.70833C5.78569 5.83325 5.85987 5.86398 5.91457 5.91868C5.96927 5.97338 6 6.04756 6 6.12492V6.70825C6 6.78561 5.96927 6.85979 5.91457 6.91449C5.85987 6.96919 5.78569 6.99992 5.70833 6.99992H4.25V11.6666C4.25 11.8213 4.31146 11.9697 4.42085 12.0791C4.53025 12.1885 4.67862 12.2499 4.83333 12.2499H6.58333C7.00558 12.2694 7.42738 12.2029 7.82311 12.0543C8.21883 11.9058 8.58023 11.6783 8.88534 11.3858C9.66625 10.6002 10.0918 9.24097 10.0833 7.55817C10.0792 7.40706 10.0156 7.26369 9.90638 7.15918C9.79717 7.05466 9.65114 6.99743 9.5 6.99992H8.04167C7.96431 6.99992 7.89012 6.96919 7.83543 6.91449C7.78073 6.85979 7.75 6.78561 7.75 6.70825V6.12492C7.75 6.04756 7.78073 5.97338 7.83543 5.91868C7.89012 5.86398 7.96431 5.83325 8.04167 5.83325H9.5C9.95928 5.83144 10.4007 6.01094 10.7284 6.33275C11.0561 6.65457 11.2435 7.09269 11.25 7.55193Z" fill="black"/>
</svg>
