<svg width="20" height="20" viewBox="0 0 20 20" fill="none" xmlns="http://www.w3.org/2000/svg">
<path d="M17.5 9.16675H17.3584C16.4809 9.16675 15.7267 8.60925 15.3942 7.79675L15.3767 7.75591C15.0367 6.94175 15.1692 6.00841 15.7934 5.38425L15.8925 5.28508C15.9699 5.20771 16.0313 5.11586 16.0731 5.01477C16.115 4.91368 16.1366 4.80533 16.1366 4.69591C16.1366 4.5865 16.115 4.47815 16.0731 4.37706C16.0313 4.27597 15.9699 4.18412 15.8925 4.10675C15.8151 4.02938 15.7233 3.968 15.6222 3.92613C15.5211 3.88426 15.4128 3.86271 15.3034 3.86271C15.1939 3.86271 15.0856 3.88426 14.9845 3.92613C14.8834 3.968 14.7916 4.02938 14.7142 4.10675L14.615 4.20591C13.9909 4.83008 13.0575 4.96258 12.2434 4.62258L12.2025 4.60508C11.3909 4.27341 10.8334 3.51508 10.8334 2.63758V2.57008C10.8334 2.03925 10.4609 1.66675 10 1.66675C9.53919 1.66675 9.16669 2.03925 9.16669 2.50008V2.53008C9.16669 3.44341 8.61669 4.26675 7.77252 4.61591L7.76752 4.61841C7.35486 4.78923 6.90081 4.83384 6.46279 4.74662C6.02477 4.65941 5.62245 4.44427 5.30669 4.12841L5.28585 4.10758C5.20848 4.03021 5.11663 3.96884 5.01554 3.92696C4.91445 3.88509 4.80611 3.86354 4.69669 3.86354C4.58727 3.86354 4.47892 3.88509 4.37783 3.92696C4.27674 3.96884 4.18489 4.03021 4.10752 4.10758C4.03015 4.18495 3.96878 4.2768 3.9269 4.37789C3.88503 4.47898 3.86348 4.58733 3.86348 4.69675C3.86348 4.80617 3.88503 4.91451 3.9269 5.0156C3.96878 5.11669 4.03015 5.20854 4.10752 5.28591L4.13752 5.31591C4.45058 5.62925 4.66381 6.02831 4.75027 6.46272C4.83674 6.89713 4.79257 7.34742 4.62335 7.75675L4.60085 7.81008C4.43447 8.21154 4.15283 8.55468 3.79152 8.79615C3.4302 9.03762 3.00543 9.16658 2.57085 9.16675C2.04002 9.16675 1.66669 9.53925 1.66669 10.0001C1.66669 10.4609 2.03919 10.8334 2.50002 10.8334H2.55669C2.9955 10.8333 3.42447 10.9634 3.78926 11.2073C4.15405 11.4512 4.43825 11.7979 4.60585 12.2034L4.62335 12.2442C4.79257 12.6536 4.83674 13.1039 4.75027 13.5383C4.66381 13.9727 4.45058 14.3717 4.13752 14.6851L4.10752 14.7151C3.95126 14.8713 3.86348 15.0833 3.86348 15.3042C3.86348 15.5252 3.95126 15.7372 4.10752 15.8934C4.26378 16.0497 4.47571 16.1375 4.69669 16.1375C4.91767 16.1375 5.1296 16.0497 5.28585 15.8934L5.31585 15.8634C5.62913 15.5503 6.02819 15.337 6.46262 15.2505C6.89706 15.164 7.34737 15.2082 7.75669 15.3776L7.87585 15.4276C8.25806 15.5854 8.58478 15.8531 8.81459 16.1969C9.0444 16.5407 9.16695 16.9449 9.16669 17.3584V17.4292C9.16669 17.9609 9.53919 18.3334 10 18.3334C10.4609 18.3334 10.8334 17.9601 10.8334 17.5001V17.3584C10.8334 16.5126 11.3425 15.7501 12.125 15.4267L12.335 15.3401C12.7173 15.1815 13.1381 15.14 13.544 15.2209C13.9499 15.3018 14.3227 15.5013 14.615 15.7942L14.7142 15.8934C14.7916 15.9708 14.8834 16.0322 14.9845 16.074C15.0856 16.1159 15.1939 16.1375 15.3034 16.1375C15.4128 16.1375 15.5211 16.1159 15.6222 16.074C15.7233 16.0322 15.8151 15.9708 15.8925 15.8934C15.9699 15.816 16.0313 15.7242 16.0731 15.6231C16.115 15.522 16.1366 15.4137 16.1366 15.3042C16.1366 15.1948 16.115 15.0865 16.0731 14.9854C16.0313 14.8843 15.9699 14.7925 15.8925 14.7151L15.7934 14.6159C15.1692 13.9917 15.0367 13.0584 15.3767 12.2442L15.3942 12.2034C15.7267 11.3909 16.485 10.8334 17.3625 10.8334H17.4292C17.9609 10.8334 18.3334 10.4609 18.3334 10.0001C18.3334 9.53925 17.9609 9.16675 17.5 9.16675ZM6.66669 10.8334C6.44567 10.8334 6.23371 10.7456 6.07743 10.5893C5.92115 10.4331 5.83335 10.2211 5.83335 10.0001C5.83335 9.77907 5.92115 9.56711 6.07743 9.41083C6.23371 9.25455 6.44567 9.16675 6.66669 9.16675C6.8877 9.16675 7.09966 9.25455 7.25594 9.41083C7.41222 9.56711 7.50002 9.77907 7.50002 10.0001C7.50002 10.2211 7.41222 10.4331 7.25594 10.5893C7.09966 10.7456 6.8877 10.8334 6.66669 10.8334ZM10.8334 13.7501C10.6123 13.7501 10.4004 13.6623 10.2441 13.506C10.0878 13.3497 10 13.1378 10 12.9167C10 12.6957 10.0878 12.4838 10.2441 12.3275C10.4004 12.1712 10.6123 12.0834 10.8334 12.0834C11.0544 12.0834 11.2663 12.1712 11.4226 12.3275C11.5789 12.4838 11.6667 12.6957 11.6667 12.9167C11.6667 13.1378 11.5789 13.3497 11.4226 13.506C11.2663 13.6623 11.0544 13.7501 10.8334 13.7501ZM11.6667 10.0001C11.4478 10 11.231 9.95685 11.0288 9.87302C10.8265 9.78919 10.6428 9.66635 10.488 9.51151C10.3332 9.35667 10.2105 9.17286 10.1268 8.97058C10.043 8.7683 9.99997 8.55151 10 8.33258C10.0001 8.11366 10.0433 7.89689 10.1271 7.69465C10.2109 7.49241 10.3338 7.30866 10.4886 7.1539C10.6434 6.99913 10.8272 6.87638 11.0295 6.79265C11.2318 6.70893 11.4486 6.66586 11.6675 6.66591C12.1097 6.66603 12.5336 6.84177 12.8462 7.15449C13.1588 7.4672 13.3343 7.89128 13.3342 8.33341C13.3341 8.77555 13.1583 9.19954 12.8456 9.5121C12.5329 9.82466 12.1088 10.0002 11.6667 10.0001Z" fill="#B4C2D4"/>
</svg>
