<svg width="20" height="20" viewBox="0 0 20 20" fill="none" xmlns="http://www.w3.org/2000/svg">
<path d="M18.9808 5.31203C18.7648 4.50877 18.1315 3.87556 17.3283 3.65927C15.8611 3.25781 9.99196 3.25781 9.99196 3.25781C9.99196 3.25781 4.12309 3.25781 2.65584 3.64405C1.86814 3.86012 1.21938 4.50888 1.00331 5.31203C0.617188 6.77916 0.617188 9.8218 0.617188 9.8218C0.617188 9.8218 0.617188 12.8798 1.00331 14.3316C1.2196 15.1347 1.85269 15.7679 2.65595 15.9842C4.13853 16.3858 9.99219 16.3858 9.99219 16.3858C9.99219 16.3858 15.8611 16.3858 17.3283 15.9995C18.1316 15.7834 18.7648 15.1502 18.9811 14.347C19.3671 12.8798 19.3671 9.83725 19.3671 9.83725C19.3671 9.83725 19.3825 6.77916 18.9808 5.31203ZM8.12337 12.6327V7.0109L13.0038 9.8218L8.12337 12.6327Z" fill="#EC7323"/>
</svg>
